# xmcd
# 
# Track frame offsets:
#     225
#     15220
#     32511
#     44920
#     58431
#     78386
#     91994
#     111883
#     125366
#     141057
# 
# Disc length: 2068
# 
# Revision: 0
# Processed by: cddbd v1.5.2PL0 Copyright (c) Steve Scherf et al.
# Submitted via: BonkEnc v1.0.5
# 
DISCID=8208110a
DTITLE=Cliff Darby - Cliff Darby
DYEAR=1998
DGENRE=Country
TTITLE0=I'll Never Stop Loving You
TTITLE1=When A King Became A Clown
TTITLE2=The Paperboy
TTITLE3=The Bad Side Of Goodbye
TTITLE4=Why Daddy Why
TTITLE5=She Had Every Right
TTITLE6=You Made My Day Last Night
TTITLE7=Country Music Memories
TTITLE8=She's Fixin' To Break Your Heart
TTITLE9=Tears From Tennessee
EXTD=
EXTT0=
EXTT1=
EXTT2=
EXTT3=
EXTT4=
EXTT5=
EXTT6=
EXTT7=
EXTT8=
EXTT9=
PLAYORDER=
